<?xml version="1.0" standalone="no"?><!DOCTYPE svg PUBLIC "-//W3C//DTD SVG 1.1//EN" "http://www.w3.org/Graphics/SVG/1.1/DTD/svg11.dtd"><svg t="1575029459427" class="icon" viewBox="0 0 1047 1024" version="1.1" xmlns="http://www.w3.org/2000/svg" p-id="3043" xmlns:xlink="http://www.w3.org/1999/xlink" width="204.4921875" height="200"><defs><style type="text/css"></style></defs><path d="M962.16064 326.20544c39.296 55.31136 61.8496 118.5792 61.8496 185.82016s-22.54848 130.90304-62.23872 186.31168c-11.15648 67.19488-40.02816 128.05632-87.72096 175.744-46.86336 46.80704-106.9824 76.62592-176.13824 87.97696-55.31648 39.296-118.62016 61.93152-185.87136 61.93152s-130.66752-22.44096-185.92256-61.93152c-69.16096-11.36128-129.28-41.16992-176.13824-87.97696-47.69792-47.68768-76.58496-108.55424-87.68-175.744C22.59456 642.88256 0 579.41504 0 512.0256c0-67.39456 22.59456-130.95424 62.2848-186.31168 11.04896-67.19488 39.82848-128.05632 87.68-175.75424 46.86336-46.85824 106.98752-76.62592 176.14336-87.97184C381.36832 22.44608 444.73344 0 512.0256 0c67.29216 0 130.41152 22.44608 185.87136 61.98784 69.16096 11.34592 129.28 41.1136 176.13824 87.97184 46.86848 46.86336 76.83072 107.47904 88.12544 176.24576z m48.33792 185.82016a299.64288 299.64288 0 0 0-44.60032-155.46368c2.56 31.8208 1.62304 63.82592-2.80064 95.44192a507.136 507.136 0 0 1-12.27776 60.51328 459.58144 459.58144 0 0 1 14.73536 155.61216 299.7504 299.7504 0 0 0 44.9024-156.09856l0.04096-0.00512z m-60.91264-61.83936a407.79776 407.79776 0 0 0-0.38912-118.87104 424.11008 424.11008 0 0 0-113.81248-105.60512 590.3872 590.3872 0 0 1 48.73216 132.17792 588.09856 588.09856 0 0 1 58.94656 128.2048 419.84 419.84 0 0 0 6.52288-35.90656z m-0.63488 242.80576a424.89856 424.89856 0 0 0-5.80096-154.33728 586.11712 586.11712 0 0 1-59.1872 127.71328 592.57344 592.57344 0 0 1-48.62464 131.78368 426.5216 426.5216 0 0 0 113.66912-105.1648h-0.05632z m-12.1344-180.66944a555.96544 555.96544 0 0 0-44.20608-111.60064 664.4992 664.4992 0 0 1 0 223.29344 553.89184 553.89184 0 0 0 44.25728-111.69792l-0.0512 0.00512z m6.58432-210.08896a294.72768 294.72768 0 0 0-221.62944-221.62944 458.53184 458.53184 0 0 1 100.39296 121.23136 459.9552 459.9552 0 0 1 121.23648 100.44928v-0.0512zM864.4608 864.47104a300.12416 300.12416 0 0 0 78.592-142.44864 460.77952 460.77952 0 0 1-120.8832 99.99872 459.50976 459.50976 0 0 1-100.352 121.18016 299.07968 299.07968 0 0 0 142.6432-78.73024z m-4.46976-543.0784a555.76064 555.76064 0 0 0-47.5904-109.73696 556.35456 556.35456 0 0 0-109.39392-47.49824 675.16416 675.16416 0 0 1 84.93056 71.9616 662.5024 662.5024 0 0 1 72.00256 85.31968l0.0512-0.04608z m-47.59552 490.9056a555.79648 555.79648 0 0 0 47.49824-109.48608 670.58176 670.58176 0 0 1-156.93824 157.184 558.44864 558.44864 0 0 0 109.39392-47.65184l0.04608-0.04608z m-14.04928-623.82592a424.96 424.96 0 0 0-105.50272-113.76128 388.82304 388.82304 0 0 0-59.776-4.61824 455.66464 455.66464 0 0 0-94.75584 10.36288 583.63392 583.63392 0 0 1 128.3584 59.43808 591.34464 591.34464 0 0 1 131.64032 48.77312l0.03584-0.19456zM692.79232 949.1456a424.41216 424.41216 0 0 0 105.46176-113.76128 590.208 590.208 0 0 1-131.64032 48.57856 585.53344 585.53344 0 0 1-128.34816 59.43808 456.69376 456.69376 0 0 0 94.75072 10.32704 388.88448 388.88448 0 0 0 59.776-4.5824z m17.09056-323.39968c71.91552-83.84512 44.20608-228.6592 19.64544-321.792-31.09376 55.26016-101.33504 94.55616-160.3328 104.52992-55.40352 9.48224-115.968-5.25824-167.64928 10.8544-117.888 36.79232-125.11232 174.08-63.85664 209.00352l2.95424 2.41152c0.49664 0 108.06272-11.69408 160.81408-27.3152 77.11744-22.9376 164.15744-86.016 196.48-163.81952-19.65056 81.83296-96.08704 156.78976-169.856 188.7744-39.296 17.03936-68.37248 22.05184-133.0688 37.02272-15.36 3.8656-29.88032 10.52672-42.83392 19.64544 73.088-46.56128 269.12768 43.77088 357.73952-59.38688l-0.03584 0.07168zM633.0112 56.73472c11.68896 0 23.13728 0.49152 34.3808 1.42336a293.20704 293.20704 0 0 0-310.784 0 416.8704 416.8704 0 0 1 34.3808-1.42336 476.4928 476.4928 0 0 1 120.98048 16.256 476.3136 476.3136 0 0 1 121.04192-16.256z m34.3808 909.1072a423.38304 423.38304 0 0 1-34.3808 1.47968 477.67552 477.67552 0 0 1-120.98048-16.26112 478.4384 478.4384 0 0 1-120.9856 16.26112c-11.47904 0-22.94784-0.47616-34.38592-1.41824a293.0688 293.0688 0 0 0 310.78912 0l-0.05632-0.06144z m-43.32032-834.49344a549.0688 549.0688 0 0 0-112.08704-44.20608 548.48 548.48 0 0 0-112.08704 44.20608 664.93952 664.93952 0 0 1 224.13312 0h0.04096z m-112.04608 805.8112a548.90496 548.90496 0 0 0 112.08704-44.2112 664.6784 664.6784 0 0 1-224.13312 0 548.5568 548.5568 0 0 0 112.04608 44.2112zM485.74976 80.60416a455.17824 455.17824 0 0 0-94.70464-10.36288c-20.01408-0.00512-40.00256 1.536-59.78112 4.61824A424.1664 424.1664 0 0 0 225.71008 188.672a590.3872 590.3872 0 0 1 131.84-48.62976 583.39328 583.39328 0 0 1 128.19968-59.43808z m-94.75584 873.1136a455.12192 455.12192 0 0 0 94.69952-10.32192 584.45824 584.45824 0 0 1-128.1536-59.4432 590.8224 590.8224 0 0 1-131.69664-48.58368 424.8832 424.8832 0 0 0 105.50272 113.76128c19.7376 3.072 39.68 4.59776 59.648 4.58752z m-91.60704-258.13504a30.7968 30.7968 0 0 0 30.24384-31.32416v-0.01024a30.79168 30.79168 0 0 0-31.31904-30.24896h-0.02048a30.80704 30.80704 0 0 0-30.24896 31.27808 30.69952 30.69952 0 0 0 31.08352 30.3104l0.26112-0.00512z m21.66272-531.42016A554.7008 554.7008 0 0 0 211.712 211.6608a555.10528 555.10528 0 0 0-47.64672 109.73696 669.88032 669.88032 0 0 1 157.184-157.184l-0.19968-0.0512zM211.65568 812.53888a557.22496 557.22496 0 0 0 109.39392 47.49824 675.4816 675.4816 0 0 1-84.92544-71.9616 666.53184 666.53184 0 0 1-72.05888-85.36576 555.48416 555.48416 0 0 0 47.64672 109.62432l-0.05632 0.2048zM201.83552 201.83552a460.63104 460.63104 0 0 1 100.35712-121.18016A293.87776 293.87776 0 0 0 81.152 301.696a459.5712 459.5712 0 0 1 120.68352-99.86048z m100.352 741.7088a461.02528 461.02528 0 0 1-100.35712-121.37984 460.63104 460.63104 0 0 1-120.84224-100.00384 293.86752 293.86752 0 0 0 221.04064 221.04064l0.15872 0.34304zM140.08832 358.08256a590.3872 590.3872 0 0 1 48.78336-132.18304 423.33696 423.33696 0 0 0-113.8176 105.11872 424.81152 424.81152 0 0 0 5.84704 154.7776A590.90944 590.90944 0 0 1 139.89376 357.888l0.19456 0.19456z m48.77824 440.41728a590.35136 590.35136 0 0 1-48.78336-132.17792 591.0528 591.0528 0 0 1-58.94144-127.71328 424.50432 424.50432 0 0 0-5.84192 154.78272 424.064 424.064 0 0 0 113.37216 104.9088l0.19456 0.19968z m-67.0976-286.47424c0.00512-37.30432 3.16416-74.53696 9.43104-111.3088a555.9552 555.9552 0 0 0-43.81696 111.3088 556.3392 556.3392 0 0 0 43.96032 111.30368 662.52288 662.52288 0 0 1-9.5744-111.30368z m-48.4352 0a459.86816 459.86816 0 0 1-14.73536-156.15488 293.23264 293.23264 0 0 0 0 312.30464 459.99104 459.99104 0 0 1 14.73536-156.14976z" fill="#55B332" p-id="3044"></path><path d="M729.43104 303.95392c24.56064 93.32736 52.36224 237.93664-19.64544 321.792-88.41728 103.15264-284.65152 12.7744-357.64736 58.94656a128.78336 128.78336 0 0 1 42.83904-19.65056c64.6912-14.73536 93.81888-19.98848 133.06368-37.03808 73.68192-31.97952 150.11328-106.93632 169.856-188.76928-32.42496 77.80864-119.41376 140.91776-196.48 163.81952-52.56192 15.62112-160.2816 27.32032-160.8192 27.32032l-2.94912-2.41152c-61.34784-34.87744-54.03136-172.16512 63.85664-209.00352 51.67104-16.11264 112.23552-1.37728 167.64416-10.8544 58.99776-9.64096 129.23904-48.94208 160.2816-104.15104z" fill="#F5F5F5" p-id="3045"></path></svg>